<svg width="48" height="48" viewBox="0 0 48 48" fill="none" xmlns="http://www.w3.org/2000/svg">
<path d="M31.5 4.5465L30.516 5.625C28.3125 8.0505 26.496 9.135 24.984 9.8445C23.472 10.5525 22.2015 10.764 20.9535 11.7195C19.623 12.7395 17.6895 14.6955 16.875 18.1875C15.129 18.5685 13.851 19.2375 12.843 20.109C11.847 20.97 11.097 21.9495 10.173 23.016C10.1655 23.028 10.1775 23.0505 10.173 23.0625C8.847 24.5865 7.6875 26.2275 5.4375 27.0945L4.5 27.4695V43.5H33.0945C34.734 43.4115 35.871 42.276 36.5625 41.1555C37.2525 40.0365 37.635 38.8245 37.8285 37.8285C38.3265 35.2905 39.234 27.984 39.234 27.984L39.282 27.8445V27.7035C39.234 26.6895 38.817 25.8285 38.2965 25.0305L39.984 20.016L42.657 15.984L43.407 14.9055L42.4215 14.016L32.5785 5.484L31.5 4.5465ZM31.5945 8.6715L39.4215 15.4695L37.359 18.5145L37.2195 18.657L37.1715 18.891L35.8125 22.9215C35.103 22.629 34.3725 22.4235 33.5625 22.4535H33.468L24 22.5H22.5V28.3125C22.29 29.9475 21.381 30.5805 20.25 31.032C19.875 31.1835 19.8285 31.101 19.5 31.1715V22.455C19.254 16.8945 21.234 15.294 22.782 14.1105C23.2095 13.782 24.462 13.4025 26.25 12.564C27.744 11.8605 29.601 10.599 31.5945 8.6715ZM16.5945 21.5625C16.5885 21.903 16.482 22.143 16.5 22.5V34.5H18C18 34.5 19.605 34.482 21.3285 33.7965C23.052 33.111 25.131 31.506 25.5 28.6875V25.5L33.5625 25.4535H33.609C34.2677 25.4166 34.914 25.6427 35.4062 26.082C35.8984 26.5213 36.1961 27.1379 36.234 27.7965C36.228 27.8205 36.159 28.377 36.141 28.5H30V31.5H35.766C35.607 32.6595 35.4615 33.387 35.2965 34.5H30V37.5H34.8285C34.6513 38.2257 34.3666 38.9209 33.984 39.5625C33.5745 40.23 33.222 40.482 32.907 40.5H7.5V29.2965C9.9315 28.0065 11.4435 26.151 12.4215 25.032C13.4355 23.871 14.1315 22.992 14.8125 22.407C15.258 22.026 15.9555 21.8085 16.5945 21.5625Z" fill="white"/>
</svg>
