<svg width="48" height="49" viewBox="0 0 48 49" fill="none" xmlns="http://www.w3.org/2000/svg">
<path fill-rule="evenodd" clip-rule="evenodd" d="M24 26C29.328 26 34.545 25.211 38.61 23.336C39.8166 22.791 40.9544 22.1052 42 21.293V24.5C42 30.5 33.942 33.5 24 33.5C14.058 33.5 6 30.5 6 24.5V21.29C7.05 22.115 8.208 22.793 9.39 23.336C13.455 25.211 18.672 26 24 26ZM42 12.5C42 18.5 33.942 21.5 24 21.5C14.058 21.5 6 18.5 6 12.5C6 11.492 6.228 10.571 6.651 9.731C8.76 5.576 15.726 3.5 24 3.5C26.484 3.5 28.854 3.689 31.005 4.064C37.47 5.189 42 8 42 12.5ZM24 45.5C33.942 45.5 42 42.5 42 36.5V33.29C40.95 34.115 39.792 34.793 38.61 35.339C34.545 37.211 29.328 38 24 38C18.672 38 13.455 37.208 9.39 35.339C8.18444 34.7896 7.04681 34.102 6 33.29V36.5C6 42.5 14.058 45.5 24 45.5Z" fill="white"/>
</svg>
