<svg width="48" height="49" viewBox="0 0 48 49" fill="none" xmlns="http://www.w3.org/2000/svg">
<path d="M24 34.5C24.5667 34.5 25.042 34.308 25.426 33.924C25.81 33.54 26.0013 33.0653 26 32.5C25.9987 31.9347 25.8067 31.46 25.424 31.076C25.0413 30.692 24.5667 30.5 24 30.5C23.4333 30.5 22.9587 30.692 22.576 31.076C22.1933 31.46 22.0013 31.9347 22 32.5C21.9987 33.0653 22.1907 33.5407 22.576 33.926C22.9613 34.3113 23.436 34.5027 24 34.5ZM22 26.5H26V14.5H22V26.5ZM24 44.5C21.2333 44.5 18.6333 43.9747 16.2 42.924C13.7667 41.8733 11.65 40.4487 9.85 38.65C8.05 36.8513 6.62534 34.7347 5.576 32.3C4.52667 29.8653 4.00134 27.2653 4 24.5C3.99867 21.7347 4.524 19.1347 5.576 16.7C6.628 14.2653 8.05267 12.1487 9.85 10.35C11.6473 8.55133 13.764 7.12667 16.2 6.076C18.636 5.02533 21.236 4.5 24 4.5C26.764 4.5 29.364 5.02533 31.8 6.076C34.236 7.12667 36.3527 8.55133 38.15 10.35C39.9473 12.1487 41.3727 14.2653 42.426 16.7C43.4793 19.1347 44.004 21.7347 44 24.5C43.996 27.2653 43.4707 29.8653 42.424 32.3C41.3773 34.7347 39.9527 36.8513 38.15 38.65C36.3473 40.4487 34.2307 41.874 31.8 42.926C29.3693 43.978 26.7693 44.5027 24 44.5Z" fill="white"/>
</svg>
