<svg width="44" height="45" viewBox="0 0 44 45" fill="none" xmlns="http://www.w3.org/2000/svg">
<path fill-rule="evenodd" clip-rule="evenodd" d="M22.0128 0.83316C16.8442 0.836079 11.8523 2.71458 7.96409 6.11983C4.02214 9.57629 1.42008 14.308 0.612587 19.4882C-0.212759 24.6901 0.795984 30.0172 3.46609 34.5573C6.09785 39.0429 10.2481 42.4384 15.1661 44.1297C16.2581 44.3355 16.6459 43.6465 16.6459 43.0593C16.6459 42.5285 16.6243 40.78 16.6156 38.9253C10.5923 40.2687 9.32259 36.3037 9.32259 36.3037C8.93266 34.9689 8.08003 33.8167 6.91759 33.0537C4.95242 31.6735 7.06925 31.7082 7.06925 31.7082C7.75609 31.8035 8.41259 32.0613 8.98675 32.4578C9.56309 32.8543 10.0419 33.3808 10.3886 33.9962C10.6811 34.5443 11.0776 35.0275 11.5543 35.4153C12.2642 36.0025 13.137 36.358 14.0551 36.4339C14.9732 36.5098 15.8925 36.3025 16.6893 35.84C16.7868 34.7133 17.2743 33.6603 18.0651 32.8717C13.2573 32.3105 8.19809 30.406 8.19809 21.8867C8.16458 19.6899 8.96249 17.5616 10.4319 15.9283C9.76892 14.0111 9.84306 11.9157 10.6399 10.0502C10.6399 10.0502 12.4578 9.45433 16.5961 12.3252C20.1416 11.3302 23.8926 11.3302 27.4381 12.3252C31.5678 9.45433 33.3748 10.0502 33.3748 10.0502C34.1764 11.9092 34.2544 14.0108 33.5936 15.9283C35.0614 17.5623 35.8578 19.6905 35.8231 21.8867C35.8231 30.4212 30.7553 32.2975 25.9344 32.8457C26.4547 33.3889 26.8547 34.0357 27.1082 34.7439C27.3616 35.4521 27.463 36.2058 27.4056 36.9558C27.4056 39.9285 27.3796 42.3227 27.3796 43.0528C27.3796 43.6422 27.7696 44.3355 28.8681 44.1188C33.7774 42.4206 37.9179 39.0232 40.5421 34.54C43.2074 30.0037 44.2131 24.6821 43.3869 19.486C42.5787 14.3106 39.9793 9.58322 36.0419 6.12849C32.1606 2.72501 27.1771 0.84372 22.0149 0.83316H22.0128Z" fill="white"/>
</svg>
