<svg width="369" height="370" viewBox="0 0 369 370" fill="none" xmlns="http://www.w3.org/2000/svg">
<path d="M228.507 286.054L144.974 142.309C132.476 120.803 104.813 113.443 83.1858 125.871C61.5589 138.299 54.1583 165.809 66.6561 187.315L150.189 331.059C162.687 352.566 190.351 359.925 211.977 347.497C233.604 335.069 241.005 307.56 228.507 286.054Z" fill="#2EF2E9"/>
<path d="M291.918 157.418L221.623 36.4534C209.924 16.3208 184.027 9.43141 163.781 21.0656C143.536 32.6999 136.608 58.452 148.308 78.5847L218.603 199.549C230.302 219.682 256.199 226.571 276.444 214.937C296.69 203.303 303.618 177.55 291.918 157.418Z" fill="#FA6663"/>
<path d="M44.0269 99.4335C68.0661 99.4335 87.5538 80.0545 87.5538 56.1494C87.5538 32.2442 68.0661 12.8653 44.0269 12.8653C19.9877 12.8653 0.5 32.2442 0.5 56.1494C0.5 80.0545 19.9877 99.4335 44.0269 99.4335Z" fill="#8A56C2"/>
<path d="M324.973 99.4335C349.012 99.4335 368.5 80.0545 368.5 56.1494C368.5 32.2442 349.012 12.8653 324.973 12.8653C300.934 12.8653 281.446 32.2442 281.446 56.1494C281.446 80.0545 300.934 99.4335 324.973 99.4335Z" fill="#FBB355"/>
</svg>
