<svg width="52" height="53" viewBox="0 0 52 53" fill="none" xmlns="http://www.w3.org/2000/svg">
<g clip-path="url(#clip0_29_789)">
<path d="M0 4.2245C0 2.16725 1.7095 0.5 3.81875 0.5H48.1812C50.2905 0.5 52 2.16725 52 4.2245V48.7755C52 50.8328 50.2905 52.5 48.1812 52.5H3.81875C1.7095 52.5 0 50.8328 0 48.7755V4.2245ZM16.0647 44.0305V20.5492H8.2615V44.0305H16.0647ZM12.1648 17.3415C14.885 17.3415 16.5782 15.541 16.5782 13.2855C16.5295 10.9812 14.8883 9.2295 12.2168 9.2295C9.54525 9.2295 7.8 10.9845 7.8 13.2855C7.8 15.541 9.49325 17.3415 12.1128 17.3415H12.1648ZM28.1157 44.0305V30.9167C28.1157 30.2148 28.1677 29.5127 28.3757 29.0122C28.938 27.6115 30.2218 26.1588 32.3797 26.1588C35.204 26.1588 36.3317 28.3103 36.3317 31.4693V44.0305H44.135V30.5625C44.135 23.3475 40.287 19.9935 35.152 19.9935C31.0115 19.9935 29.1558 22.2685 28.1157 23.8708V23.952H28.0638L28.1157 23.8708V20.5492H20.3158C20.4132 22.7528 20.3158 44.0305 20.3158 44.0305H28.1157Z" fill="white"/>
</g>
<defs>
<clipPath id="clip0_29_789">
<rect width="52" height="52" fill="white" transform="translate(0 0.5)"/>
</clipPath>
</defs>
</svg>
