<svg width="49" height="48" viewBox="0 0 49 48" fill="none" xmlns="http://www.w3.org/2000/svg">
<path d="M24.7719 4.5C13.805 4.35187 4.85189 13.305 5.00001 24.2719C5.14626 34.7897 13.7103 43.3537 24.2281 43.5C35.1969 43.65 44.1481 34.6969 43.9981 23.73C43.8538 13.2103 35.2897 4.64625 24.7719 4.5ZM33.4063 16.4287L25.6963 33.915C25.2472 34.8966 23.7481 34.5712 23.7481 33.4875V25.125C23.7481 25.0255 23.7086 24.9302 23.6383 24.8598C23.568 24.7895 23.4726 24.75 23.3731 24.75H15.0125C13.9325 24.75 13.6063 23.2622 14.5841 22.8122L32.0713 15.0937C32.2581 15.0075 32.4669 14.9806 32.6695 15.0167C32.8721 15.0528 33.0588 15.1502 33.2043 15.2957C33.3498 15.4412 33.4472 15.6279 33.4833 15.8305C33.5194 16.0331 33.4925 16.2419 33.4063 16.4287Z" fill="white"/>
</svg>
