<svg width="49" height="48" viewBox="0 0 49 48" fill="none" xmlns="http://www.w3.org/2000/svg">
<g clip-path="url(#clip0_15_43)">
<path d="M32.45 9C32.3306 9 32.2162 9.04741 32.1318 9.1318C32.0474 9.21619 32 9.33065 32 9.45V17.6955L30.131 16.605C30.0156 16.5369 29.884 16.501 29.75 16.501C29.616 16.501 29.4844 16.5369 29.369 16.605L24.878 19.224C24.7628 19.2898 24.6671 19.385 24.6007 19.4999C24.5342 19.6148 24.4995 19.7453 24.5 19.878V25.122C24.5 25.392 24.644 25.641 24.878 25.776L29.369 28.395C29.4844 28.4631 29.616 28.499 29.75 28.499C29.884 28.499 30.0156 28.4631 30.131 28.395L34.622 25.776C34.7372 25.7102 34.8329 25.615 34.8993 25.5001C34.9658 25.3852 35.0005 25.2547 35 25.122V10.845C34.9998 10.7142 34.9653 10.5856 34.9001 10.4722C34.8348 10.3588 34.741 10.2644 34.628 10.1985L32.6735 9.0615C32.6061 9.02209 32.5296 9.00089 32.4515 9H32.45ZM17.75 16.503C17.6162 16.5024 17.4846 16.5376 17.369 16.605L12.878 19.224C12.7628 19.2898 12.6671 19.385 12.6007 19.4999C12.5342 19.6148 12.4995 19.7453 12.5 19.878V25.122C12.5 25.392 12.644 25.641 12.878 25.776L17.369 28.395C17.6045 28.53 17.894 28.53 18.131 28.395L22.622 25.776C22.7372 25.7102 22.8329 25.615 22.8993 25.5001C22.9658 25.3852 23.0005 25.2547 23 25.122V19.878C23.0005 19.7453 22.9658 19.6148 22.8993 19.4999C22.8329 19.385 22.7372 19.2898 22.622 19.224L18.131 16.605C18.0154 16.5376 17.8838 16.5024 17.75 16.503ZM41.75 16.503C41.6162 16.5024 41.4846 16.5376 41.369 16.605L36.878 19.224C36.7628 19.2898 36.6671 19.385 36.6007 19.4999C36.5342 19.6148 36.4995 19.7453 36.5 19.878V25.122C36.5 25.392 36.644 25.641 36.878 25.776L41.234 28.4085C41.3492 28.4781 41.4811 28.5153 41.6157 28.5164C41.7503 28.5174 41.8827 28.4822 41.999 28.4145L44.141 27.1695C44.1914 27.1398 44.2332 27.0975 44.2622 27.0467C44.2912 26.9959 44.3065 26.9385 44.3065 26.88C44.3065 26.8215 44.2912 26.764 44.2622 26.7133C44.2332 26.6625 44.1914 26.6202 44.141 26.5905L39.5 23.856V21.165L41.75 19.8555L44 21.165V23.04C44 23.2905 44.21 23.3295 44.351 23.2455L46.628 21.921C46.741 21.8551 46.8348 21.7607 46.9001 21.6473C46.9653 21.5339 46.9998 21.4053 47 21.2745V19.8795C47.0005 19.7468 46.9658 19.6163 46.8993 19.5014C46.8329 19.3865 46.7372 19.2913 46.622 19.2255L42.131 16.6065C42.0154 16.5391 41.8838 16.5039 41.75 16.5045V16.503ZM5.75 16.506C5.61617 16.5054 5.48462 16.5406 5.369 16.608L0.878 19.224C0.763348 19.2912 0.668192 19.3872 0.601909 19.5024C0.535626 19.6176 0.500503 19.7481 0.5 19.881V26.5755C0.5 26.9025 0.854 27.105 1.136 26.9415L3.128 25.782C3.24123 25.7159 3.33517 25.6213 3.40044 25.5076C3.46571 25.3939 3.50004 25.2651 3.5 25.134V21.1695L5.75 19.857L8 21.1695V25.134C8.00022 25.2648 8.03467 25.3934 8.09993 25.5068C8.16519 25.6202 8.25899 25.7146 8.372 25.7805L10.364 26.9415C10.4283 26.979 10.5014 26.9988 10.5758 26.999C10.6503 26.9992 10.7235 26.9798 10.788 26.9427C10.8525 26.9055 10.9061 26.852 10.9433 26.7876C10.9805 26.7231 11.0001 26.6499 11 26.5755V19.881C10.9995 19.7481 10.9644 19.6176 10.8981 19.5024C10.8318 19.3872 10.7367 19.2912 10.622 19.224L6.131 16.608C6.01537 16.5406 5.88383 16.5054 5.75 16.506ZM29.75 19.854L32 21.1665V23.8335L29.75 25.146L27.5 23.8335V21.165L29.75 19.8525V19.854ZM41.75 21.006L40.4645 21.756V23.253L41.75 24L43.0355 23.253V21.756L41.75 21.006ZM23.609 26.997C23.4531 26.9958 23.2996 27.0351 23.1635 27.111L18.9455 29.55C18.8102 29.6274 18.6977 29.7392 18.6195 29.8741C18.5412 30.009 18.5 30.1621 18.5 30.318V35.187C18.5 35.5005 18.6755 35.796 18.9455 35.955L20.0555 36.588C20.588 36.8505 20.7845 36.8505 21.026 36.8505C21.821 36.8505 22.274 36.375 22.274 35.535V30.7245C22.2748 30.708 22.2722 30.6915 22.2664 30.676C22.2605 30.6606 22.2516 30.6465 22.24 30.6346C22.2285 30.6228 22.2146 30.6135 22.1993 30.6073C22.184 30.601 22.1675 30.5981 22.151 30.5985H21.617C21.5836 30.5985 21.5515 30.6118 21.5279 30.6354C21.5043 30.659 21.491 30.6911 21.491 30.7245V35.535C21.491 35.8995 21.1055 36.2745 20.477 35.961L19.322 35.295C19.3032 35.2831 19.2875 35.2668 19.2766 35.2474C19.2656 35.228 19.2595 35.2063 19.259 35.184V30.315C19.259 30.2715 19.28 30.2205 19.3235 30.198L23.5415 27.7665C23.5617 27.7552 23.5844 27.7493 23.6075 27.7493C23.6306 27.7493 23.6533 27.7552 23.6735 27.7665L27.896 30.1965C27.9395 30.2205 27.9605 30.264 27.9605 30.315V35.184C27.9595 35.2072 27.9532 35.2298 27.942 35.2501C27.9308 35.2704 27.9151 35.2878 27.896 35.301L23.6735 37.7415C23.6533 37.7528 23.6306 37.7587 23.6075 37.7587C23.5844 37.7587 23.5617 37.7528 23.5415 37.7415L22.4645 37.0995C22.4345 37.0845 22.3895 37.077 22.361 37.092C22.1635 37.2183 21.9494 37.3167 21.725 37.3845C21.6515 37.407 21.5525 37.452 21.764 37.569L23.1635 38.4015C23.3003 38.4761 23.4532 38.5162 23.609 38.5185C23.7642 38.5196 23.9165 38.477 24.0485 38.3955L28.268 35.955C28.4033 35.8776 28.5158 35.7658 28.594 35.6309C28.6723 35.496 28.7135 35.3429 28.7135 35.187V30.318C28.712 30.1624 28.6701 30.0098 28.592 29.8752C28.514 29.7406 28.4023 29.6286 28.268 29.55L24.0485 27.1125C23.9141 27.0376 23.7628 26.9983 23.609 26.9985V26.997ZM30.1895 29.244C30.0831 29.2442 29.9778 29.2653 29.8796 29.3062C29.7814 29.3471 29.6923 29.4069 29.6172 29.4823C29.5421 29.5577 29.4826 29.6471 29.4421 29.7454C29.4016 29.8438 29.3808 29.9491 29.381 30.0555C29.3812 30.1619 29.4023 30.2672 29.4432 30.3654C29.4841 30.4636 29.5439 30.5527 29.6193 30.6278C29.6947 30.7029 29.7841 30.7624 29.8824 30.8029C29.9808 30.8434 30.0861 30.8642 30.1925 30.864C30.4073 30.8636 30.6132 30.7779 30.7648 30.6257C30.9164 30.4735 31.0014 30.2673 31.001 30.0525C31.0006 29.8377 30.9149 29.6318 30.7627 29.4802C30.6105 29.3286 30.4043 29.2436 30.1895 29.244ZM30.1805 29.373C30.5615 29.373 30.8705 29.673 30.8705 30.0525C30.8678 30.2347 30.7942 30.4086 30.6654 30.5374C30.5366 30.6662 30.3627 30.7398 30.1805 30.7425C29.9993 30.7405 29.8264 30.6668 29.6996 30.5374C29.5727 30.408 29.5024 30.2337 29.504 30.0525C29.5034 29.9634 29.5205 29.875 29.5542 29.7925C29.588 29.7099 29.6377 29.6349 29.7006 29.5718C29.7635 29.5086 29.8383 29.4585 29.9207 29.4244C30.003 29.3903 30.0914 29.3728 30.1805 29.373ZM29.885 29.5935V30.504H30.0575V30.141H30.2195C30.2855 30.141 30.3005 30.168 30.3155 30.219C30.3155 30.2265 30.3425 30.4635 30.35 30.507H30.5375C30.5135 30.428 30.4989 30.3464 30.494 30.264C30.473 30.147 30.467 30.066 30.3425 30.0585C30.4085 30.036 30.518 30.0015 30.518 29.8335C30.518 29.592 30.308 29.5935 30.1985 29.5935H29.885ZM30.0575 29.739H30.2045C30.2495 29.739 30.3365 29.739 30.3365 29.862C30.3365 29.913 30.314 29.997 30.1955 29.994H30.0575V29.739ZM24.74 30.483C23.5355 30.483 22.82 30.9975 22.82 31.8435C22.82 32.7705 23.537 33.018 24.6905 33.1335C26.0705 33.273 26.1785 33.471 26.1785 33.741C26.1785 34.215 25.7975 34.4115 24.9065 34.4115C23.789 34.4115 23.5445 34.1355 23.4635 33.5805C23.456 33.5205 23.4035 33.477 23.3375 33.477H22.7885C22.772 33.4766 22.7555 33.4795 22.7402 33.4858C22.7249 33.492 22.711 33.5013 22.6995 33.5131C22.6879 33.525 22.6789 33.5391 22.6731 33.5545C22.6673 33.57 22.6647 33.5865 22.6655 33.603C22.6655 34.311 23.0525 35.1585 24.899 35.1585C26.2535 35.1585 27.02 34.6335 27.02 33.7125C27.02 32.8005 26.405 32.5575 25.106 32.382C23.792 32.2065 23.6615 32.118 23.6615 31.8105C23.6615 31.5555 23.7695 31.221 24.7415 31.221C25.6085 31.221 25.9325 31.4115 26.0645 31.995C26.0805 32.056 26.1185 32.0875 26.1785 32.0895H26.726C26.763 32.0875 26.7925 32.0755 26.8145 32.0535C26.8385 32.0265 26.8485 31.9955 26.8445 31.9605C26.7575 30.9525 26.0915 30.483 24.74 30.483Z" fill="white"/>
</g>
<defs>
<clipPath id="clip0_15_43">
<rect width="48" height="48" fill="white" transform="translate(0.5)"/>
</clipPath>
</defs>
</svg>
