<svg width="53" height="52" viewBox="0 0 53 52" fill="none" xmlns="http://www.w3.org/2000/svg">
<g clip-path="url(#clip0_29_869)">
<path d="M26.5 0C28.8867 0 31.1888 0.304688 33.4062 0.914062C35.6237 1.52344 37.6973 2.39518 39.627 3.5293C41.5566 4.66341 43.3086 6.01758 44.8828 7.5918C46.457 9.16602 47.8112 10.9264 48.9453 12.873C50.0794 14.8197 50.9512 16.8932 51.5605 19.0938C52.1699 21.2943 52.4831 23.5964 52.5 26C52.5 28.3867 52.1953 30.6888 51.5859 32.9062C50.9766 35.1237 50.1048 37.1973 48.9707 39.127C47.8366 41.0566 46.4824 42.8086 44.9082 44.3828C43.334 45.957 41.5736 47.3112 39.627 48.4453C37.6803 49.5794 35.6068 50.4512 33.4062 51.0605C31.2057 51.6699 28.9036 51.9831 26.5 52C24.1133 52 21.8112 51.6953 19.5938 51.0859C17.3763 50.4766 15.3027 49.6048 13.373 48.4707C11.4434 47.3366 9.69141 45.9824 8.11719 44.4082C6.54297 42.834 5.1888 41.0736 4.05469 39.127C2.92057 37.1803 2.04883 35.1152 1.43945 32.9316C0.830078 30.748 0.516927 28.4375 0.5 26C0.5 23.6133 0.804688 21.3112 1.41406 19.0938C2.02344 16.8763 2.89518 14.8027 4.0293 12.873C5.16341 10.9434 6.51758 9.19141 8.0918 7.61719C9.66602 6.04297 11.4264 4.6888 13.373 3.55469C15.3197 2.42057 17.3848 1.54883 19.5684 0.939453C21.752 0.330078 24.0625 0.0169271 26.5 0ZM26.5 48.75C28.582 48.75 30.5879 48.4792 32.5176 47.9375C34.4473 47.3958 36.2585 46.6341 37.9512 45.6523C39.6439 44.6706 41.1842 43.4772 42.5723 42.0723C43.9603 40.6673 45.1452 39.1354 46.127 37.4766C47.1087 35.8177 47.8789 34.0065 48.4375 32.043C48.9961 30.0794 49.2669 28.0651 49.25 26C49.25 23.918 48.9792 21.9121 48.4375 19.9824C47.8958 18.0527 47.1341 16.2415 46.1523 14.5488C45.1706 12.8561 43.9772 11.3158 42.5723 9.92773C41.1673 8.53971 39.6354 7.35482 37.9766 6.37305C36.3177 5.39128 34.5065 4.62109 32.543 4.0625C30.5794 3.50391 28.5651 3.23307 26.5 3.25C24.418 3.25 22.4121 3.52083 20.4824 4.0625C18.5527 4.60417 16.7415 5.36589 15.0488 6.34766C13.3561 7.32943 11.8158 8.52279 10.4277 9.92773C9.03971 11.3327 7.85482 12.8646 6.87305 14.5234C5.89128 16.1823 5.12109 17.9935 4.5625 19.957C4.00391 21.9206 3.73307 23.9349 3.75 26C3.75 28.082 4.02083 30.0879 4.5625 32.0176C5.10417 33.9473 5.86589 35.7585 6.84766 37.4512C7.82943 39.1439 9.02279 40.6842 10.4277 42.0723C11.8327 43.4603 13.3646 44.6452 15.0234 45.627C16.6823 46.6087 18.4935 47.3789 20.457 47.9375C22.4206 48.4961 24.4349 48.7669 26.5 48.75ZM41.6582 26.4062L42.877 22.75H44.7812L42.623 29.25H40.7188L39.5 25.5938L38.2812 29.25H36.377L34.2188 22.75H36.123L37.3418 26.4062L38.5605 22.75H40.4395L41.6582 26.4062ZM29.877 22.75H31.7812L29.623 29.25H27.7188L26.5 25.5938L25.2812 29.25H23.377L21.2188 22.75H23.123L24.3418 26.4062L25.5605 22.75H27.4395L28.6582 26.4062L29.877 22.75ZM16.877 22.75H18.7812L16.623 29.25H14.7188L13.5 25.5938L12.2812 29.25H10.377L8.21875 22.75H10.123L11.3418 26.4062L12.5605 22.75H14.4395L15.6582 26.4062L16.877 22.75Z" fill="white"/>
</g>
<defs>
<clipPath id="clip0_29_869">
<rect width="52" height="52" fill="white" transform="translate(0.5)"/>
</clipPath>
</defs>
</svg>
