<svg width="49" height="48" viewBox="0 0 49 48" fill="none" xmlns="http://www.w3.org/2000/svg">
<g clip-path="url(#clip0_15_33)">
<mask id="mask0_15_33" style="mask-type:luminance" maskUnits="userSpaceOnUse" x="0" y="0" width="49" height="48">
<path d="M0.5 0H48.5V48H0.5V0Z" fill="white"/>
</mask>
<g mask="url(#mask0_15_33)">
<path d="M24.328 0C12.14 0 12.9 5.312 12.9 5.312L12.914 10.816H24.542V12.468H8.3C8.3 12.468 0.5 11.578 0.5 23.938C0.5 36.298 7.306 35.858 7.306 35.858H11.366V30.124C11.366 30.124 11.148 23.284 18.066 23.284H29.598C29.598 23.284 36.078 23.388 36.078 16.988V6.404C36.078 6.404 37.062 0 24.328 0ZM17.916 3.7C19.072 3.7 20.008 4.64 20.008 5.804C20.008 6.966 19.072 7.906 17.916 7.906C16.76 7.906 15.824 6.966 15.824 5.804C15.824 4.64 16.758 3.7 17.916 3.7Z" fill="white"/>
<path d="M24.674 48C36.858 48 36.098 42.688 36.098 42.688L36.084 37.184H24.456V35.532H40.702C40.702 35.532 48.502 36.422 48.502 24.062C48.502 11.702 41.694 12.142 41.694 12.142H37.634V17.876C37.634 17.876 37.852 24.716 30.934 24.716H19.404C19.404 24.716 12.924 24.612 12.924 31.012V41.596C12.924 41.596 11.94 48 24.674 48ZM31.086 44.3C29.928 44.3 28.994 43.36 28.994 42.196C28.994 41.034 29.928 40.094 31.086 40.094C32.242 40.094 33.178 41.034 33.178 42.196C33.178 43.36 32.242 44.3 31.086 44.3Z" fill="white"/>
</g>
</g>
<defs>
<clipPath id="clip0_15_33">
<rect width="48" height="48" fill="white" transform="translate(0.5)"/>
</clipPath>
</defs>
</svg>
