<svg width="48" height="49" viewBox="0 0 48 49" fill="none" xmlns="http://www.w3.org/2000/svg">
<g clip-path="url(#clip0_15_71)">
<path d="M44.2205 23.9318C43.907 27.6327 42.4692 31.1714 40.0779 34.1273C37.6866 37.0832 34.4423 39.3321 30.7305 40.6069C27.0187 41.8816 22.9954 42.1286 19.1385 41.3185C15.2817 40.5084 11.7534 38.6752 8.97297 36.0368C6.19252 33.3984 4.27671 30.0656 3.45317 26.4344C2.62963 22.8033 2.93296 19.0263 4.32714 15.5523C5.72132 12.0784 8.14773 9.05335 11.3181 6.83672C14.4885 4.62008 18.2696 3.30499 22.2121 3.04768" stroke="white" stroke-width="5.5" stroke-linecap="round" stroke-linejoin="round"/>
<path d="M32.5018 25.6443C31.9283 27.031 30.9959 28.2615 29.7889 29.2246C28.582 30.1877 27.1385 30.853 25.589 31.1603C24.0396 31.4675 22.433 31.4072 20.9147 30.9846C19.3963 30.562 18.014 29.7905 16.8928 28.7399C15.7716 27.6893 14.9468 26.3928 14.4931 24.9675C14.0393 23.5422 13.9709 22.0331 14.294 20.5767C14.6172 19.1204 15.3216 17.7626 16.3437 16.6263C17.3658 15.49 18.6732 14.6109 20.1479 14.0686M23.6413 22.3924L31.5808 14.9338M31.5808 14.9338L37.9324 16.4255L44.2841 10.4586L37.9324 8.96688L36.3445 3L29.9929 8.96688L31.5808 14.9338Z" stroke="white" stroke-width="5.5" stroke-linecap="round" stroke-linejoin="round"/>
</g>
<defs>
<clipPath id="clip0_15_71">
<rect width="48" height="48" fill="white" transform="translate(0 0.5)"/>
</clipPath>
</defs>
</svg>
